{"title":"A$AP Rocky - Phoenix [Explicit] 1080p [Sbyky]","uid":9775324,"size":55611397,"categoryP":"video","categoryS":"music_videos","magnet":"?xt=urn:btih:eb06f4dc67f6b176ff4f7d3891730c52b23ca174&amp;dn=A%24AP+Rocky+-+Phoenix+%5BExplicit%5D+1080p+%5BSbyky%5D&amp;tr=udp%3A%2F%2Ftracker.openbittorrent.com%3A80&amp;tr=udp%3A%2F%2Fopen.demonii.com%3A1337&amp;tr=udp%3A%2F%2Ftracker.coppersurfer.tk%3A6969&amp;tr=udp%3A%2F%2Fexodus.desync.com%3A6969","seeders":1,"leechers":0,"uploader":"Sbyky","files":1,"time":1395022967,"description":"\n\nGeneral\nComplete name                            : A$AP Rocky - Phoenix [Explicit] 1080p [Sbyky].MP4\nFormat                                   : MPEG-4\nFormat profile                           : Base Media\nCodec ID                                 : isom\nFile size                                : 53.0 MiB\nDuration                                 : 3mn 42s\nOverall bit rate mode                    : Variable\nOverall bit rate                         : 2 002 Kbps\nEncoded date                             : UTC 2014-03-02 01:49:39\nTagged date                              : UTC 2014-03-02 01:49:39\n\nVideo\nID                                       : 1\nFormat                                   : AVC\nFormat/Info                              : Advanced Video Codec\nFormat profile                           : &lt;a class=&quot;__cf_email__&quot; href=&quot;/cdn-cgi/l/email-protection&quot; data-cfemail=&quot;f6be9f919eb6bac2d8c6&quot;&gt;[email&amp;#160;protected]&lt;/a&gt;&lt;script cf-hash='f9e31' type=&quot;text/javascript&quot;&gt;\n/* &lt;![CDATA[ */!function(){try{var t=&quot;currentScript&quot;in document?document.currentScript:function(){for(var t=document.getElementsByTagName(&quot;script&quot;),e=t.length;e--;)if(t[e].getAttribute(&quot;cf-hash&quot;))return t[e]}();if(t&amp;&amp;t.previousSibling){var e,r,n,i,c=t.previousSibling,a=c.getAttribute(&quot;data-cfemail&quot;);if(a){for(e=&quot;&quot;,r=parseInt(a.substr(0,2),16),n=2;a.length-n;n+=2)i=parseInt(a.substr(n,2),16)^r,e+=String.fromCharCode(i);e=document.createTextNode(e),c.parentNode.replaceChild(e,c)}}}catch(u){}}();/* ]]&gt; */&lt;/script&gt;\nFormat settings, CABAC                   : Yes\nFormat settings, ReFrames                : 3 frames\nCodec ID                                 : avc1\nCodec ID/Info                            : Advanced Video Coding\nDuration                                 : 3mn 42s\nDuration_LastFrame                       : -41ms\nBit rate                                 : 1 874 Kbps\nWidth                                    : 1 920 pixels\nHeight                                   : 1 080 pixels\nDisplay aspect ratio                     : 16:9\nFrame rate mode                          : Constant\nFrame rate                               : 23.976 fps\nColor space                              : YUV\nChroma subsampling                       : 4:2:0\nBit depth                                : 8 bits\nScan type                                : Progressive\nBits/(Pixel*Frame)                       : 0.038\nStream size                              : 49.6 MiB (94%)\nEncoded date                             : UTC 2014-03-02 01:49:39\nTagged date                              : UTC 2014-03-02 01:49:39\n\nAudio\nID                                       : 2\nFormat                                   : AAC\nFormat/Info                              : Advanced Audio Codec\nFormat profile                           : LC\nCodec ID                                 : 40\nDuration                                 : 3mn 42s\nBit rate mode                            : Variable\nBit rate                                 : 126 Kbps\nChannel(s)                               : 2 channels\nChannel positions                        : Front: L R\nSampling rate                            : 44.1 KHz\nCompression mode                         : Lossy\nStream size                              : 3.33 MiB (6%)\nEncoded date                             : UTC 2014-03-02 01:49:03\nTagged date                              : UTC 2014-03-02 01:49:03\n\nShared By Sbyky\n","torrent":{"xt":"urn:btih:eb06f4dc67f6b176ff4f7d3891730c52b23ca174","amp;dn":"A%24AP+Rocky+-+Phoenix+%5BExplicit%5D+1080p+%5BSbyky%5D","amp;tr":["udp%3A%2F%2Ftracker.openbittorrent.com%3A80","udp%3A%2F%2Fopen.demonii.com%3A1337","udp%3A%2F%2Ftracker.coppersurfer.tk%3A6969","udp%3A%2F%2Fexodus.desync.com%3A6969"],"infoHash":"eb06f4dc67f6b176ff4f7d3891730c52b23ca174","infoHashBuffer":{"type":"Buffer","data":[235,6,244,220,103,246,177,118,255,79,125,56,145,115,12,82,178,60,161,116]},"announce":[],"urlList":[]}}